<svg width="317.1" height="224.4" viewBox="0 0 317.1 224.4" xmlns="http://www.w3.org/2000/svg">
  <linearGradient id="gradient1" x1="0%" y1="0%" x2="0%" y2="100%">
    <stop offset="0%" style="stop-color:#FF5733; stop-opacity:1" />
    <stop offset="100%" style="stop-color:#c3002f; stop-opacity:1" />
  </linearGradient>
  <g id="svgGroup" stroke-linecap="round" fill-rule="evenodd" font-size="9pt" stroke="#00000000" stroke-width="0.25mm" fill="url(#gradient1)" style="stroke:#00000000;stroke-width:0.25mm;">
    <path d="M 186.9 217.2 L 138.3 224.4 Q 142.8 203.4 147 183 Q 151.2 162.6 155.1 142.8 Q 161.4 107.1 167.4 72.15 A 830.592 830.592 0 0 0 174.09 25.583 A 708.774 708.774 0 0 0 176.1 5.4 L 191.7 6.3 Q 195.9 6.6 199.95 6.9 Q 204 7.2 207.9 7.5 Q 212.4 7.8 216.9 7.95 Q 221.4 8.1 225.9 8.1 A 49.785 49.785 0 0 0 225.602 9.38 Q 225.145 11.443 224.419 15.224 A 602.673 602.673 0 0 0 223.95 17.7 Q 222.6 24.9 221.25 32.25 Q 219.9 39.6 219.3 42.3 L 213.9 72 L 215.7 71.7 Q 223.177 60.098 232.647 45.395 A 197052.59 197052.59 0 0 0 235.8 40.5 Q 247.2 22.8 257.1 6.6 Q 272.1 5.4 287.1 3.9 Q 302.1 2.4 317.1 0 L 303.3 18.6 Q 296.4 27.9 289.8 37.2 Q 282.9 46.8 274.8 58.2 A 1027.791 1027.791 0 0 0 260.272 79.179 A 940.652 940.652 0 0 0 259.35 80.55 A 804.767 804.767 0 0 0 254.196 88.32 Q 250.2 94.425 247.2 99.3 Q 250.5 114.3 254.4 129 Q 258.3 143.7 262.8 157.8 Q 267.3 171.9 271.8 186.3 Q 276.3 200.7 281.1 215.4 Q 274.2 215.1 267 214.95 Q 259.8 214.8 252.9 214.8 Q 244.2 214.8 236.1 214.95 Q 228 215.1 219.3 215.4 A 1000.239 1000.239 0 0 0 217.331 200.578 A 1123.158 1123.158 0 0 0 216.6 195.45 Q 215.1 185.1 213.6 174.3 Q 212.1 163.8 210.6 153.45 Q 209.1 143.1 207.6 133.5 L 202.2 139.8 A 232.427 232.427 0 0 0 201.131 144.45 Q 199.608 151.382 197.938 160.667 A 672.312 672.312 0 0 0 197.7 162 Q 196.5 168.6 195.15 175.05 Q 193.8 181.5 192.6 187.5 Q 191.4 194.7 189.9 202.05 Q 188.4 209.4 186.9 217.2 Z M 86.4 204 L 88.2 187.2 Q 88.5 183 88.8 179.4 Q 89.1 175.8 89.4 172.8 L 63.3 172.8 L 51.3 216 Q 46.763 216.619 41.091 217.308 A 1119.652 1119.652 0 0 1 35.7 217.95 Q 26.7 219 18.9 219.9 Q 14.1 220.5 9.45 221.1 Q 4.8 221.7 0 222.3 L 23.7 143.7 Q 27.309 131.583 31.805 116.585 A 23472.998 23472.998 0 0 1 33.3 111.6 Q 38.7 93.6 44.25 74.7 Q 49.8 55.8 54.75 39.15 Q 59.671 22.598 62.665 11.235 A 508.515 508.515 0 0 0 62.7 11.1 Q 83.1 9.6 104.25 7.5 Q 125.4 5.4 145.5 1.8 A 1269.962 1269.962 0 0 0 144.082 19.096 Q 143.392 28.235 142.737 38.391 A 2084.908 2084.908 0 0 0 142.65 39.75 A 2527.722 2527.722 0 0 0 140.517 77.796 A 2767.341 2767.341 0 0 0 140.25 83.4 Q 139.2 105.9 138 127.8 A 3580.038 3580.038 0 0 1 136.72 165.059 A 3934.621 3934.621 0 0 1 136.5 170.55 Q 135.6 192.6 134.7 215.7 L 125.7 216.9 L 116.7 218.1 Q 109.2 219.3 100.2 220.8 L 84 223.5 Q 84.6 218.4 85.2 213.6 L 86.4 204 Z M 89.1 67.5 L 70.5 142.8 A 37.542 37.542 0 0 0 71.517 142.784 Q 73.005 142.742 75.575 142.598 A 378.162 378.162 0 0 0 77.25 142.5 Q 82.2 142.2 86.7 141.9 A 536.781 536.781 0 0 1 88.261 141.798 Q 91.024 141.622 91.908 141.602 A 8.832 8.832 0 0 1 92.1 141.6 A 46.502 46.502 0 0 1 92.157 139.506 Q 92.363 135.075 93.3 125.7 Q 94.5 113.7 95.7 100.5 A 1154.273 1154.273 0 0 1 96.957 85.479 A 1256.589 1256.589 0 0 1 97.05 84.45 Q 97.8 76.2 98.7 67.5 L 100.5 41.4 L 96 41.7 L 89.1 67.5 Z" vector-effect="non-scaling-stroke" />
  </g>
</svg>